# Blender v2.83.0 OBJ File: ''
# www.blender.org
mtllib hex.mtl
o Circle_Circle.001
v 0.000000 1.000000 -1.000000
v -0.866025 1.000000 -0.500000
v -0.866025 1.000000 0.500000
v 0.000000 1.000000 1.000000
v 0.866025 1.000000 0.500000
v 0.866025 1.000000 -0.500000
v 0.000000 0.000000 -1.000000
v -0.866025 0.000000 -0.500000
v -0.866025 0.000000 0.500000
v 0.000000 0.000000 1.000000
v 0.866025 0.000000 0.500000
v 0.866025 0.000000 -0.500000
vt 0.932932 0.749954
vt 0.932932 0.250047
vt 0.500000 0.000093
vt 0.067068 0.250047
vt 0.067068 0.749954
vt 0.500000 0.999907
vt 0.000100 0.999900
vt 0.999900 0.999900
vt 0.999900 0.000100
vt 0.000100 0.000100
vt 0.999900 0.999900
vt 0.999900 0.000100
vt 0.000100 0.000100
vt 0.000100 0.999900
vt 0.999900 0.000100
vt 0.000100 0.000100
vt 0.000100 0.999900
vt 0.999900 0.999900
vt 0.000100 0.999900
vt 0.999900 0.999900
vt 0.999900 0.999900
vt 0.999900 0.000100
vt 0.000100 0.000100
vt 0.000100 0.999900
vt 0.999900 0.999900
vt 0.000100 0.000100
vn 0.0000 1.0000 0.0000
vn 1.0000 0.0000 0.0000
vn -0.5000 0.0000 0.8660
vn -0.5000 0.0000 -0.8660
vn 0.5000 0.0000 -0.8660
vn 0.5000 0.0000 0.8660
vn -1.0000 0.0000 0.0000
usemtl None
s off
f 2/1/1 3/2/1 4/3/1 5/4/1 6/5/1 1/6/1
f 5/7/2 11/8/2 12/9/2 6/10/2
f 3/11/3 9/12/3 10/13/3 4/14/3
f 1/15/4 7/16/4 8/17/4 2/18/4
f 6/10/5 12/19/5 7/20/5 1/15/5
f 4/14/6 10/21/6 11/22/6 5/23/6
f 2/24/7 8/25/7 9/12/7 3/26/7
